<?xml version="1.0" encoding="UTF-8"?>
<svg id="Capa_2" data-name="Capa 2" xmlns="http://www.w3.org/2000/svg" viewBox="0 0 254.38 201.41">
  <defs>
    <style>
      .cls-1 {
        fill: red;
      }
    </style>
  </defs>
  <g id="CONTENT">
    <g>
      <path class="cls-1" d="M97.93,52.45c-13.14-.37-30.1,33.78-34.6,45.1-2.52,6.32,5.28,10.86,7.81,4.55,4.18-10.52,18.44-39.86,26.81-39.82,8.35.05,22.14,29.55,26.21,40.12,2.44,6.34,10.3,1.89,7.85-4.46-4.37-11.37-20.96-45.71-34.08-45.49M62.74,77.16c-.04-.4-.1-.78-.17-1.16-.45-2.48-1.23-4.74-2.3-6.77-.02-.05-.05-.08-.07-.13-.28-.52-.59-1.02-.91-1.51-.21-.33-.43-.64-.65-.95-.15-.21-.3-.41-.46-.61-.31-.41-.62-.79-.93-1.15-.34-.39-.69-.78-1.05-1.14-.08-.08-.15-.16-.23-.23-13.82-13.66-43.93-12.26-52.54-8.63-5.82,2.45-3.81,9.66,2.56,6.85,10.37-2.62,20.37-2.57,30.6,0,8.35,2.1,17.11,9.41,17.11,17.26-.6,19.55-26.47,20.33-36.95,17.79v-24.33c0-5.81-7.48-5.86-7.48-.05v24.46c0,4.91,2.53,6.69,5.88,7.46,7.9,1.81,41.04,3.74,46.93-19.81.12-.45.2-.89.29-1.33.08-.4.16-.8.23-1.21.22-1.6.26-3.11.14-4.54-.01-.08-.02-.17-.03-.25M201.77,57.73c0-6.78-8.52-6.74-8.52-.11v42.76c0,6.41,8.52,6.65,8.52.24v-42.89ZM180.44,55.26c-3.72,10.58-16.47,40.13-24.19,40.21-7.73.07-20.92-29.22-24.84-39.73-2.36-6.3-9.55-1.72-7.2,4.58,4.22,11.31,20.07,45.4,32.21,44.98,12.13.19,27.31-34.22,31.31-45.6,2.23-6.35-5.05-10.78-7.29-4.43"/>
      <g>
        <path class="cls-1" d="M62.77,121.22h4.25c.96,1.56,1.65,3.32,2.06,5.28,1.37-1.88,3.05-3.35,5.04-4.43,1.99-1.07,4.13-1.61,6.42-1.61,4.12,0,7.48,1.51,10.09,4.53s3.91,7.46,3.91,13.31c0,6.54-1.7,11.45-5.11,14.72-3.41,3.27-7.83,4.91-13.28,4.91-2.24,0-4.37-.23-6.38-.69v14.61h-6.52v-38.97c0-4.25-.16-8.14-.48-11.66ZM76.22,152.44c7.96,0,11.94-4.55,11.94-13.65,0-4.44-.79-7.6-2.37-9.5-1.58-1.9-3.88-2.85-6.9-2.85s-5.92.96-9.13,2.88v22.3c2.01.55,4.16.82,6.45.82Z"/>
        <path class="cls-1" d="M102.84,155.7c-1.51-1.53-2.26-4.04-2.26-7.51v-42.4h6.52v41.44c0,1.83.26,3.12.79,3.88.53.75,1.45,1.13,2.78,1.13.5,0,1.85-.18,4.05-.55v5.56c-1.88.5-3.73.75-5.56.75-2.7,0-4.8-.77-6.31-2.3Z"/>
        <path class="cls-1" d="M137.59,153.57c-.34-1.07-.61-2.34-.79-3.81-.96,2.61-2.47,4.62-4.53,6.04-2.06,1.42-4.48,2.13-7.27,2.13s-4.85-.73-6.59-2.2c-1.74-1.46-2.61-3.61-2.61-6.45,0-2.47.57-4.44,1.72-5.9,1.14-1.46,2.54-2.56,4.19-3.29,1.65-.73,3.84-1.51,6.59-2.33,2.15-.64,3.82-1.18,5.01-1.61,1.19-.43,2.22-1.02,3.09-1.75-.05-2.97-.88-5.04-2.5-6.21-1.62-1.17-3.81-1.75-6.55-1.75-1.37,0-2.81.13-4.32.38-1.51.25-3.36.63-5.56,1.13v-5.69c3.84-1.19,7.36-1.78,10.57-1.78,4.48,0,8.02,1.2,10.6,3.6,2.58,2.4,3.88,6.12,3.88,11.15v10.5c0,4.03.23,7.85.69,11.46h-4.25c-.55-1.33-1-2.53-1.34-3.6ZM123.15,151.65c.78.66,1.85,1,3.22,1,1.55,0,3.11-.45,4.67-1.34,1.55-.89,2.84-2.15,3.84-3.77,1.01-1.62,1.51-3.44,1.51-5.45v-2.61c-.96.69-2,1.25-3.12,1.68-1.12.44-2.48.88-4.08,1.34-1.69.46-3.01.89-3.94,1.3-.94.41-1.72,1.01-2.33,1.78-.62.78-.93,1.81-.93,3.09s.39,2.32,1.17,2.98Z"/>
        <path class="cls-1" d="M151.55,144v-17.63h-6.38v-3.29c1.88-.69,4.12-1.21,6.72-1.58v-10.57h6.17v10.29h14.07v5.15h-14.07v17.7c0,2.88.57,4.92,1.72,6.11,1.14,1.19,2.84,1.78,5.08,1.78s5.01-.41,8.03-1.24v5.63c-3.52,1.05-6.59,1.58-9.19,1.58-8.1,0-12.14-4.64-12.14-13.93Z"/>
        <path class="cls-1" d="M196.12,153.57c-.34-1.07-.61-2.34-.79-3.81-.96,2.61-2.47,4.62-4.53,6.04-2.06,1.42-4.48,2.13-7.27,2.13s-4.85-.73-6.59-2.2c-1.74-1.46-2.61-3.61-2.61-6.45,0-2.47.57-4.44,1.72-5.9,1.14-1.46,2.54-2.56,4.19-3.29,1.65-.73,3.84-1.51,6.59-2.33,2.15-.64,3.82-1.18,5.01-1.61,1.19-.43,2.22-1.02,3.09-1.75-.05-2.97-.88-5.04-2.5-6.21-1.62-1.17-3.81-1.75-6.55-1.75-1.37,0-2.81.13-4.32.38-1.51.25-3.36.63-5.56,1.13v-5.69c3.84-1.19,7.36-1.78,10.57-1.78,4.48,0,8.02,1.2,10.6,3.6,2.58,2.4,3.88,6.12,3.88,11.15v10.5c0,4.03.23,7.85.69,11.46h-4.25c-.55-1.33-1-2.53-1.34-3.6ZM181.67,151.65c.78.66,1.85,1,3.22,1,1.55,0,3.11-.45,4.67-1.34,1.55-.89,2.84-2.15,3.84-3.77,1.01-1.62,1.51-3.44,1.51-5.45v-2.61c-.96.69-2,1.25-3.12,1.68-1.12.44-2.48.88-4.08,1.34-1.69.46-3.01.89-3.94,1.3-.94.41-1.72,1.01-2.33,1.78-.62.78-.93,1.81-.93,3.09s.39,2.32,1.17,2.98Z"/>
      </g>
      <path class="cls-1" d="M134.39,5.98c9.39.05,28.73,7.06,49.35,18.45.28.15.6-.09.53-.4-.44-1.88-1.31-6.58.32-9.36,1.11-1.43,3.2-2.16,6.2-2.16h18.2c3.69,0,6,.65,7.06,1.98,1.6,2.02.57,6.02-.63,10.65-1.37,5.39-2.4,11.73-2.82,17.39l-.05.66.54.39c.15.11,14.8,10.7,22.81,17.33,10.01,8.28,14.21,16.13,11.82,22.09-2.43,6.05-11.7,9.93-23.59,9.93-.97,0-1.96-.03-2.96-.08l-8.57-.43.03,1.29c.17,6.76,2.2,20.4,13.89,35.79,10.95,12.85,12.56,27.75,4.4,40.87-7.74,12.44-24.74,22.92-47.7,22.92-5.67,0-11.71-.64-18.06-2.05l-.33-.07-.32.11c-9.19,3.02-23.35,4.14-30.12,4.14-7.26,0-21.41-1.29-30.12-4.14l-.32-.11-.33.07c-6.35,1.41-12.38,2.05-18.06,2.05-22.96,0-39.97-10.48-47.71-22.92-7.14-11.48-6.13-26.4,1.42-38.08,1.29-2,2.93-4.01,4.62-5.82.86-.92,1.07-2.26.51-3.39l-.03-.05c-.94-1.89-3.49-2.28-4.94-.74-.46.49-.87.95-1.15,1.33-6.11,7.22-10.47,17.41-11.35,25.57-.9,8.34,1.12,16.76,5.83,24.34,9.88,15.88,30.1,25.74,52.79,25.74,5.89,0,11.97-.65,18.1-1.92,9.84,2.94,23.9,4.05,30.73,4.05s20.87-1.09,30.73-4.05c6.12,1.27,12.21,1.92,18.1,1.92,22.68,0,42.91-9.86,52.78-25.74,4.71-7.58,6.73-16,5.83-24.33-.88-8.15-4.56-16.25-10.65-23.44-8.11-10.73-11.09-20.39-12.11-27.03l1.78.09c1.08.06,2.18.09,3.26.09,14.59,0,25.75-5.24,29.14-13.69,2.43-6.07,2.06-16.01-13.56-28.93-6.24-5.17-16.39-12.65-20.92-15.96.48-4.61,1.34-9.48,2.41-13.73,1.46-5.64,2.97-11.49-.48-15.84-3.02-3.81-8.15-4.25-11.74-4.25h-18.2c-4.94,0-8.62,1.5-10.92,4.47l-.24.31-.2.34c-.56.97-.96,2.01-1.24,3.08C160.26,5.68,143.71.05,134.42,0h-.03s-.03,0-.03,0c-10.61.05-29.35,7.13-51.42,19.41-.19.1-18.07,10.28-28.75,17.85-1.36.96-1.66,2.86-.67,4.2h0c.96,1.32,2.8,1.61,4.13.67,9.35-6.62,25.26-15.86,28.19-17.5,20.9-11.64,39.05-18.61,48.54-18.66"/>
    </g>
  </g>
</svg>